<svg width="141" height="31" viewBox="0 0 141 31" fill="none" xmlns="http://www.w3.org/2000/svg">
<path d="M81.096 8.71297C80.9331 8.71076 80.7732 8.7569 80.6366 8.84556C80.4999 8.93421 80.3926 9.06139 80.3283 9.21102C80.2639 9.36065 80.2453 9.526 80.2749 9.68618C80.3045 9.84635 80.381 9.99415 80.4946 10.1109C80.6082 10.2276 80.7538 10.3081 80.9132 10.342C81.0725 10.376 81.2383 10.3619 81.3896 10.3016C81.5409 10.2414 81.671 10.1376 81.7633 10.0034C81.8557 9.86922 81.9061 9.71067 81.9084 9.54779C81.911 9.43933 81.892 9.33143 81.8523 9.23042C81.8127 9.12942 81.7534 9.03734 81.6777 8.95958C81.602 8.88183 81.5116 8.81996 81.4117 8.77761C81.3118 8.73526 81.2045 8.71329 81.096 8.71297Z" fill="white"/>
<path d="M49.2702 19.1126C49.2702 16.3719 46.5644 15.5153 44.1735 14.761C41.634 13.9578 39.9703 13.3091 39.9703 11.6883C39.9703 10.1104 41.508 9.04852 43.798 9.04852C45.0385 9.03506 46.2618 9.34047 47.3504 9.93548L47.4369 9.98629L47.9952 9.23924L47.8856 9.17324C46.6346 8.50374 45.236 8.15756 43.8171 8.16617C40.9793 8.16617 38.9995 9.61805 38.9995 11.7021C38.9995 13.8681 41.0717 14.7306 43.5749 15.5595L43.8877 15.6631C46.1414 16.4056 48.2704 17.1064 48.2704 19.1318C48.2704 21.1961 46.3968 22.5305 43.497 22.5305C41.9163 22.5069 40.372 22.0523 39.0305 21.2159L38.9302 21.1499L38.4683 21.9675L38.5574 22.025C40.0456 22.9531 41.7616 23.4515 43.5155 23.465C46.9036 23.4689 49.2702 21.6778 49.2702 19.1126Z" fill="white"/>
<path d="M55.7862 23.2133L55.8851 23.1929L55.7908 22.2815L55.6634 22.3158C55.2616 22.4209 54.848 22.4746 54.4326 22.4755C53.347 22.4755 52.8191 21.9245 52.8191 20.7914V14.186H56.0614V13.2852H52.821V10.1465L51.8503 10.8447V13.2865L50.1245 13.2964V14.2104H51.8503V20.7914C51.8503 22.5072 52.7201 23.3763 54.4346 23.3763C54.8897 23.372 55.343 23.3173 55.7862 23.2133Z" fill="white"/>
<path d="M64.9539 21.5196V23.1886H65.9016V13.2842H64.9308V20.3984C64.2266 21.1903 62.8388 22.4745 61.2642 22.4745C59.6598 22.4745 58.8804 21.5882 58.8804 19.7642V13.2842H57.9097V19.8341C57.9097 22.0845 59.1154 23.3754 61.2173 23.3754C62.9417 23.3754 64.352 22.1426 64.9539 21.5196Z" fill="white"/>
<path d="M73.1622 23.3758C74.4488 23.3704 75.685 22.8748 76.619 21.9899V23.1883H77.5898V8.28223H76.619V14.3907C75.6827 13.5511 74.4673 13.0902 73.2097 13.0978C70.4334 13.0978 68.3394 15.3119 68.3394 18.2487C68.3387 21.1716 70.4122 23.3758 73.1622 23.3758ZM69.3345 18.2487C69.3345 15.7858 70.9554 13.9986 73.1873 13.9986C73.8372 14.0016 74.4792 14.1423 75.0707 14.4116C75.6623 14.6808 76.19 15.0725 76.619 15.5607V20.7743C76.2085 21.2941 75.6878 21.7162 75.0943 22.0102C74.5008 22.3042 73.8495 22.4627 73.1873 22.4743C70.9534 22.4749 69.3326 20.6977 69.3326 18.2487H69.3345Z" fill="white"/>
<path d="M81.6031 13.2842H80.6323V23.1886H81.6031V13.2842Z" fill="white"/>
<path d="M88.9327 13.0977C86.1695 13.0977 84.0854 15.3118 84.0854 18.2485C84.0854 21.1714 86.1491 23.3756 88.8859 23.3756C89.5475 23.3623 90.1998 23.2171 90.8046 22.9486C91.4094 22.68 91.9545 22.2935 92.4081 21.8117C92.8617 21.3299 93.2147 20.7625 93.4463 20.1426C93.6778 19.5227 93.7835 18.8629 93.7569 18.2017C93.7569 15.2933 91.6827 13.0977 88.9327 13.0977ZM92.7604 18.2247C92.7604 20.6877 91.1396 22.4748 88.907 22.4748C86.6883 22.4748 85.0793 20.6877 85.0793 18.2247C85.0793 15.7764 86.6902 14.0011 88.907 14.0011C91.1416 13.9985 92.7624 15.7764 92.7624 18.2247H92.7604Z" fill="white"/>
<path d="M101.4 10.1835L110.353 23.1375L110.387 23.1857H111.229V8.28223H110.235V21.2864L101.287 8.3304L101.252 8.28223H100.453V23.189H101.4V10.1835Z" fill="white"/>
<path d="M118.583 13.0977C115.909 13.0977 113.968 15.2642 113.968 18.2485C113.968 21.3634 116.008 23.3756 119.165 23.3756C120.223 23.3677 121.268 23.136 122.23 22.6959L122.308 22.6846V22.4075L122.26 22.4312C122.22 22.3052 122.154 22.094 122.093 21.9033L122.055 21.7799L121.938 21.8346C121.072 22.2466 120.126 22.4659 119.167 22.4774C116.597 22.4774 115.033 20.9332 114.966 18.3402H122.848V17.9245C122.846 14.9917 121.173 13.0977 118.583 13.0977ZM114.998 17.4599C115.255 15.321 116.601 13.9985 118.536 13.9985C120.47 13.9985 121.703 15.2893 121.847 17.4599H114.998Z" fill="white"/>
<path d="M128.477 13.0977C127.509 13.1256 126.555 13.3267 125.659 13.6916L125.563 13.7312L125.843 14.601L125.956 14.5502C126.739 14.2133 127.579 14.0268 128.431 14.0005C130.538 14.0005 131.4 14.8399 131.4 16.8969V17.9001C130.517 17.424 129.531 17.1689 128.527 17.1563C126.249 17.1563 124.66 18.4498 124.66 20.3009C124.66 22.1402 126.178 23.3756 128.434 23.3756C129.524 23.3665 130.578 22.9827 131.419 22.2887V23.1902H132.366V16.8019C132.368 14.3093 131.095 13.0977 128.477 13.0977ZM131.397 18.8253V21.2156C131.032 21.6284 130.582 21.9568 130.078 22.1783C129.574 22.3997 129.027 22.5087 128.477 22.4979C126.678 22.4979 125.604 21.6762 125.604 20.3009C125.604 18.7171 127.082 18.0109 128.547 18.0109C129.555 18.0052 130.544 18.2877 131.397 18.8253Z" fill="white"/>
<path d="M140.136 14.185V13.2842H136.895V10.1455L135.925 10.8437V13.2855L134.199 13.2954V14.2094H135.925V20.7904C135.925 22.5062 136.794 23.3754 138.509 23.3754C138.965 23.3698 139.419 23.3142 139.863 23.2097L139.961 23.1886L139.867 22.2805L139.74 22.3148C139.338 22.42 138.924 22.4736 138.509 22.4745C137.423 22.4745 136.895 21.9235 136.895 20.7904V14.185H140.136Z" fill="white"/>
<path d="M15.0474 0.908203C12.1106 0.908203 9.2398 1.77906 6.79794 3.41066C4.35609 5.04226 2.45289 7.36131 1.32903 10.0746C0.205164 12.7878 -0.0888896 15.7734 0.484051 18.6537C1.05699 21.5341 2.47119 24.1799 4.54782 26.2565C6.62445 28.3331 9.27023 29.7473 12.1506 30.3203C15.031 30.8932 18.0165 30.5992 20.7298 29.4753C23.443 28.3514 25.7621 26.4483 27.3937 24.0064C29.0253 21.5645 29.8961 18.6937 29.8961 15.7569C29.8918 11.8201 28.326 8.04584 25.5422 5.26211C22.7585 2.47838 18.9842 0.91257 15.0474 0.908203V0.908203Z" fill="white"/>
<path d="M17.1395 25.1807V19.5666H16.4868V23.9446L13.3521 19.5652L12.7925 19.5547V25.1833H13.4452V20.7366L16.5654 25.1774L17.1395 25.1807Z" fill="black"/>
<path d="M23.0873 15.4072H7.00317V16.0111H23.0873V15.4072Z" fill="black"/>
<path d="M13.0674 11.0824L12.7144 11.5939C13.3635 12.1322 14.185 12.4183 15.0281 12.3997C16.3737 12.3997 17.3135 11.6315 17.3135 10.5314C17.3194 10.2523 17.2411 9.97793 17.0889 9.74394C16.9368 9.50995 16.7177 9.32718 16.4602 9.21941C16.027 9.02079 15.576 8.86368 15.1132 8.75019L15.0433 8.73105C14.221 8.50007 13.6389 8.29417 13.6389 7.75236C13.6389 7.2277 14.2408 6.81656 15.0096 6.81656C15.5671 6.81669 16.1059 7.01745 16.5275 7.38213L16.8885 6.84758C16.3774 6.42878 15.7336 6.20602 15.073 6.21931C13.8547 6.21931 12.9711 6.87925 12.9711 7.78865C12.9711 8.78517 14.087 9.096 14.9839 9.34546C15.7554 9.5606 16.6258 9.80346 16.6258 10.5723C16.6258 11.3068 15.9956 11.7813 15.0202 11.7813C14.3093 11.7741 13.6215 11.5279 13.0674 11.0824Z" fill="black"/>
</svg>
