<svg width="73" height="40" viewBox="0 0 73 40" fill="none" xmlns="http://www.w3.org/2000/svg">
<path fill-rule="evenodd" clip-rule="evenodd" d="M61.0364 10.5703C59.9488 10.5703 59.0425 9.66057 59.0425 8.56883C59.0425 7.47714 59.9488 6.56738 61.0364 6.56738C62.124 6.56738 63.0303 7.47714 63.0303 8.56883C63.0303 9.66057 62.124 10.5703 61.0364 10.5703Z" fill="white"/>
<path fill-rule="evenodd" clip-rule="evenodd" d="M29.3743 15.3624C27.6825 15.3624 26.1116 18.5163 25.9303 22.4585C25.7491 25.3698 26.3532 28.0384 27.4409 29.2514C27.8034 29.676 28.2263 29.8579 28.6493 29.9186H28.7097C30.4015 29.9186 31.9725 26.7647 32.1537 22.8224C32.335 19.9112 31.7307 17.2426 30.5828 16.0296C30.2202 15.605 29.7973 15.4231 29.3743 15.3624C29.4348 15.3624 29.3743 15.3624 29.3743 15.3624ZM54.3284 37.9244L54.4492 37.8031C57.0474 35.3771 58.9808 33.0117 60.7935 30.1611C62.727 26.5221 63.3916 23.1257 62.9082 19.7293C62.7874 19.1834 62.6061 19.1834 62.5457 19.1834C62.304 19.1834 61.9415 19.426 61.579 19.7293C57.4099 23.9142 55.2347 28.281 54.6909 33.3756V33.4969L52.0928 34.1035V33.9215C51.9719 27.4926 52.3949 21.1849 53.4824 14.574H48.6488L48.5883 18.9408L45.9902 18.8802L45.809 16.0296C45.5069 15.4231 45.0839 15.1805 44.6005 15.1805C44.3589 15.1805 44.0567 15.2411 43.7546 15.4231C42.2441 16.2722 41.4586 18.213 41.2773 21.9127C41.0961 24.9452 41.1565 27.1287 42.1837 28.2203C42.6671 28.7056 43.2712 28.9481 44.0567 28.9481C44.3589 28.9481 44.661 28.9481 44.963 28.8875C46.2319 28.281 47.1987 27.068 47.9841 25.0665L48.0446 24.9452L49.3738 24.8239L49.3134 25.0059C48.5279 29.312 46.534 31.3135 42.9087 31.3135C42.4858 31.3135 42.0628 31.3135 41.5794 31.2529C38.2563 30.4644 37.1687 26.9467 38.3167 21.0636C38.9209 18.0917 40.0689 16.0296 41.8816 14.6346H33.483C34.6914 16.2722 35.2957 18.5163 35.2957 21.3062C34.9331 27.068 32.9996 30.2218 29.3139 31.2529C28.7702 31.3742 28.2263 31.4955 27.6221 31.4955C26.8971 31.4955 26.0511 31.3742 25.2657 31.1316C23.8156 30.4644 22.9093 29.2514 22.6675 27.6745C22.1238 23.9142 22.4259 22.1553 23.6343 18.5769C24.3593 16.4541 25.6886 15.3018 26.8971 14.574H17.5922L17.713 18.9408H15.9004V18.7588C16.0212 17.7278 15.8399 16.8787 15.2961 16.2722C14.8127 15.7263 14.0273 15.3624 13.121 15.3624C12.3959 15.3624 11.7313 15.605 11.3688 15.9083C10.5229 16.3328 10.0395 17.4852 10.0999 18.6376C10.2208 20.2145 11.3083 21.4275 13.121 22.034C16.0816 23.1863 18.1359 25.0665 19.3444 27.7958C20.4924 31.6774 18.9214 35.0132 15.2357 36.2868C14.5711 36.4082 13.9065 36.4688 13.3022 36.4688C12.6981 36.4688 12.0334 36.4082 11.4292 36.2868C10.0395 36.0443 8.77063 35.559 7.62263 34.8919L7.5622 34.8313V28.8269H9.37487V29.0088C9.13315 32.2839 9.97905 34.1035 11.9126 34.5887C12.2751 34.6493 12.6376 34.7099 13.0001 34.7099C14.5107 34.7099 15.7795 34.1641 16.565 33.1937C17.1692 32.4053 17.3505 31.3742 17.0484 30.2825C16.565 28.5842 15.1149 27.1893 12.3355 25.9156C9.5561 24.7633 7.86429 22.8831 7.50177 20.5177C7.32054 17.9097 8.04559 16.0903 9.85819 14.7559H0.190796L2.84934 12.2692H53.9658C54.3284 8.75148 55.1138 4.93053 56.5035 0.563684L56.564 0.442383H60.8539V1.95865H60.7331C58.4974 3.47491 57.1682 6.93201 56.7452 12.2692H72.0318L69.434 14.6346H56.4431L55.7181 25.4911C57.712 21.7307 59.9476 18.7588 62.3644 16.6361L62.4249 16.5754H66.0501V16.6967C67.3791 26.2189 64.4188 30.7677 60.9747 34.2854L55.7181 39.3194L54.3284 37.9244Z" fill="white"/>
<path fill-rule="evenodd" clip-rule="evenodd" d="M62.849 0.32052C62.3657 0.32052 62.0031 0.684424 62.0031 1.16963C62.0031 1.65483 62.3657 2.01874 62.849 2.01874C63.3324 2.01874 63.6949 1.65483 63.6949 1.16963C63.6949 0.684424 63.3324 0.32052 62.849 0.32052ZM62.849 2.14004C62.3053 2.14004 61.8823 1.71548 61.8823 1.16963C61.8823 0.623773 62.3053 0.199219 62.849 0.199219C63.3928 0.199219 63.8158 0.623773 63.8158 1.16963C63.8762 1.71548 63.3928 2.14004 62.849 2.14004Z" fill="white"/>
<path fill-rule="evenodd" clip-rule="evenodd" d="M62.6047 1.04868H62.7859C62.9068 1.04868 62.9672 1.04868 62.9672 1.04868C62.9672 1.04868 63.0277 1.04868 63.0277 0.988031V0.927378C63.0277 0.866731 63.0277 0.866731 63.0277 0.866731L62.9672 0.806078C62.9672 0.806078 62.9068 0.806078 62.7859 0.806078H62.6047V1.04868ZM62.363 1.71584V0.563477H62.8464C62.9672 0.563477 63.0277 0.563477 63.0881 0.563477C63.1485 0.563477 63.2089 0.624127 63.2089 0.684778C63.2693 0.745429 63.2693 0.806078 63.2693 0.866731C63.2693 0.927378 63.2693 0.988031 63.2089 1.04868C63.1485 1.10933 63.0881 1.10933 62.9672 1.16998C63.0276 1.16998 63.0277 1.23063 63.0881 1.29129C63.1485 1.35193 63.1485 1.41259 63.2089 1.47324L63.3297 1.71584H63.0881L62.9068 1.47324C62.8464 1.41259 62.7859 1.35193 62.7859 1.29129L62.7256 1.23063C62.7256 1.23063 62.6651 1.23063 62.6047 1.23063H62.5443V1.71584H62.363Z" fill="white"/>
</svg>
