<svg width="159" height="42" viewBox="0 0 159 42" fill="none" xmlns="http://www.w3.org/2000/svg">
<path d="M46.437 28.0326V12.167H49.5948L54.2043 22.4554H54.2552L58.8646 12.167H62.0479V28.0326H59.0683V18.2789H58.9665L54.4589 28.0326H53.9496L49.442 18.2789H49.3911V28.0326H46.437ZM73.4314 26.7083C72.3618 27.8288 71.0375 28.3891 69.4077 28.3891C67.7778 28.3891 66.4281 27.8288 65.384 26.7083C64.3144 25.5878 63.8051 24.0343 63.8051 22.048C63.8051 20.0871 64.3399 18.5336 65.4349 17.4131C66.53 16.2926 67.8542 15.7068 69.4332 15.7068C71.0121 15.7068 72.3363 16.2671 73.4314 17.4131C74.5264 18.5336 75.0612 20.0871 75.0612 22.048C75.0103 24.0343 74.501 25.5878 73.4314 26.7083ZM67.3958 24.7729C67.8797 25.4095 68.5418 25.7151 69.3822 25.7151C70.2226 25.7151 70.8847 25.3841 71.3686 24.7474C71.8525 24.1107 72.0817 23.194 72.0817 22.0225C72.0817 20.851 71.827 19.9343 71.3431 19.2976C70.8593 18.6609 70.1971 18.3299 69.3567 18.3299C68.5164 18.3299 67.8542 18.6355 67.3704 19.2721C66.8865 19.9088 66.6319 20.8256 66.6319 22.0225C66.6828 23.2449 66.912 24.1362 67.3958 24.7729ZM79.8234 28.0326L75.0103 16.0379H78.0663L81.0458 23.7542H81.0968L84.0763 16.0379H87.0814L82.2682 28.058H79.8234V28.0326ZM95.7145 23.907L97.7772 25.7151C96.5548 27.4978 94.8995 28.3891 92.8113 28.3891C91.1305 28.3891 89.7553 27.8034 88.7112 26.6574C87.6416 25.5114 87.1323 23.9579 87.1323 22.048C87.1323 20.138 87.6671 18.5845 88.7112 17.4385C89.7553 16.2926 91.0796 15.7068 92.684 15.7068C94.2883 15.7068 95.6126 16.2926 96.6312 17.4385C97.6754 18.5845 98.1847 20.138 98.1847 22.048V22.9393H90.1118C90.1628 23.8561 90.4174 24.5691 90.8758 25.053C91.3342 25.5369 91.9709 25.7915 92.7604 25.7915C93.448 25.7915 94.0082 25.6133 94.4411 25.2822C94.8995 24.9257 95.307 24.4673 95.7145 23.907ZM90.1118 20.7237H95.3325C95.2561 19.9597 95.0014 19.3485 94.543 18.9156C94.0846 18.4827 93.4734 18.2789 92.684 18.2789C91.9709 18.2789 91.3597 18.5081 90.9013 18.992C90.4429 19.4504 90.1628 20.0361 90.1118 20.7237ZM101.521 28.0326L98.8723 16.0124H101.75L103.329 24.0343H103.405L106.079 16.0124H108.753L111.223 24.0089H111.274L113.083 16.0124H115.909L113.032 28.0326H110.128L107.378 19.3995H107.327L104.348 28.0326H101.521ZM125.892 26.7083C124.823 27.8288 123.498 28.3891 121.868 28.3891C120.239 28.3891 118.889 27.8288 117.845 26.7083C116.775 25.5878 116.266 24.0343 116.266 22.048C116.266 20.0871 116.801 18.5336 117.896 17.4131C118.991 16.2926 120.315 15.7068 121.894 15.7068C123.473 15.7068 124.797 16.2671 125.892 17.4131C126.987 18.5336 127.522 20.0871 127.522 22.048C127.471 24.0343 126.962 25.5878 125.892 26.7083ZM119.857 24.7729C120.34 25.4095 121.003 25.7151 121.843 25.7151C122.683 25.7151 123.345 25.3841 123.829 24.7474C124.313 24.1107 124.542 23.194 124.542 22.0225C124.542 20.851 124.288 19.9343 123.804 19.2976C123.32 18.6609 122.658 18.3299 121.817 18.3299C120.977 18.3299 120.315 18.6355 119.831 19.2721C119.347 19.9088 119.093 20.8256 119.093 22.0225C119.144 23.2449 119.398 24.1362 119.857 24.7729ZM129.279 28.0326V16.0124H132.055V17.2858H132.106C132.335 16.8274 132.666 16.4708 133.125 16.1907C133.558 15.9106 134.067 15.7832 134.576 15.7832C134.958 15.7832 135.315 15.8596 135.671 16.0124L135.213 18.8647C134.882 18.7373 134.576 18.6864 134.296 18.6864C132.921 18.6864 132.233 19.6032 132.233 21.4368V28.0326H129.279ZM148.073 24.0853L150.722 23.3977C150.926 25.0785 151.842 25.9189 153.421 25.9189C154.134 25.9189 154.72 25.7915 155.153 25.5623C155.586 25.3331 155.79 25.0021 155.79 24.5691C155.79 24.2126 155.611 23.9579 155.28 23.7797C154.949 23.6014 154.262 23.3722 153.192 23.0666C152.912 22.9902 152.683 22.9393 152.53 22.8884C151.129 22.5064 150.111 22.0225 149.474 21.4877C148.812 20.9529 148.506 20.2399 148.506 19.3485C148.506 18.3553 148.914 17.4895 149.729 16.7764C150.544 16.0634 151.639 15.6814 153.039 15.6814C155.739 15.6814 157.42 16.8528 158.082 19.2212L155.637 19.9597C155.433 19.374 155.128 18.9411 154.746 18.61C154.364 18.2789 153.803 18.1007 153.065 18.1007C152.479 18.1007 152.046 18.2025 151.69 18.4317C151.358 18.6609 151.18 18.9156 151.18 19.2212C151.18 19.5523 151.384 19.8069 151.791 20.0107C152.199 20.1889 153.192 20.52 154.796 20.9784C156.197 21.3604 157.165 21.8442 157.674 22.4045C158.183 22.9902 158.438 23.7287 158.438 24.6455C158.438 25.6133 158.031 26.4791 157.19 27.2431C156.35 28.0071 155.128 28.3891 153.549 28.3891C151.893 28.3891 150.595 27.9816 149.703 27.1412C148.812 26.3008 148.252 25.2822 148.073 24.0853ZM143.311 21.7678L148.124 28.058H144.457L140.23 22.3536V28.058H137.25V11.5049H140.23V21.1312L144.457 16.0379H148.124L143.311 21.7678Z" fill="white"/>
<path d="M18.9096 18.5848H0.573853V0.249023L18.9096 18.5848ZM18.9096 0.249023V18.6103H37.2709L18.9096 0.249023Z" fill="white"/>
<path d="M0.573853 39.9765V21.6152H18.9351L0.573853 39.9765ZM37.2709 21.6407H18.9096V40.002L37.2709 21.6407Z" fill="#9E9E9E"/>
<path d="M46.4371 32.5156H47.2011V39.1114H46.4371V32.5156Z" fill="white"/>
<path d="M48.6501 34.1196H49.3632V34.578H49.3886C49.6942 34.2215 50.2545 33.9668 50.7893 33.9668C51.9607 33.9668 52.6738 34.7053 52.6738 35.8768V39.111H51.9353V35.9532C51.9353 35.1383 51.4514 34.6544 50.6874 34.6544C49.898 34.6544 49.3632 35.1892 49.3632 35.9532V39.0855H48.6246V34.1196H48.6501Z" fill="white"/>
<path d="M53.5934 37.4047L54.3064 37.2773C54.4592 38.1941 54.8922 38.5761 55.809 38.5761C56.4966 38.5761 56.904 38.296 56.904 37.8631C56.904 37.3792 56.5984 37.1755 55.5288 36.8444C54.2555 36.4879 53.8226 36.1059 53.8226 35.4183C53.8226 34.5779 54.5356 33.9922 55.5543 33.9922C56.5475 33.9922 57.286 34.5779 57.4897 35.4692L56.7767 35.622C56.5984 34.9854 56.191 34.6543 55.5543 34.6543C54.9431 34.6543 54.5356 34.9344 54.5356 35.3674C54.5356 35.7239 54.8158 35.9022 55.758 36.1823C57.1332 36.5898 57.6425 37.0227 57.6425 37.8121C57.6425 38.678 56.904 39.2383 55.7835 39.2383C54.5356 39.2383 53.7207 38.5761 53.5934 37.4047Z" fill="white"/>
<path d="M59.4729 34.7826V37.9659C59.4729 38.297 59.6003 38.4243 60.0077 38.4243H60.4152V39.1119H59.9313C59.0145 39.1119 58.7089 38.8063 58.7089 37.9659V34.7826H57.9449V34.1205H58.7089V33H59.4475V34.1205H60.6699V34.7826H59.4729Z" fill="white"/>
<path d="M61.1323 37.8377C61.1323 36.9973 61.6417 36.5644 62.8895 36.2588C63.8572 36.0296 64.1628 35.8258 64.1628 35.4184C64.1628 34.96 63.7554 34.6544 63.1442 34.6544C62.482 34.6544 62.0236 35.0619 61.8963 35.724L61.1578 35.5712C61.3361 34.6035 62.1 33.9668 63.1442 33.9668C64.2647 33.9668 64.9523 34.578 64.9523 35.5966V39.111H64.2647V38.5762H64.2392C63.9591 38.9837 63.4243 39.2383 62.7876 39.2383C61.769 39.2383 61.1323 38.7035 61.1323 37.8377ZM64.2138 37.4048V36.2842H64.1883C64.0864 36.5389 63.7554 36.6917 63.0932 36.87C62.2274 37.0992 61.8708 37.3538 61.8708 37.7868C61.8708 38.2961 62.2019 38.5507 62.8386 38.5507C63.628 38.5507 64.2138 38.0669 64.2138 37.4048Z" fill="white"/>
<path d="M66.1228 34.1196H66.8358V34.578H66.8613C67.1669 34.2215 67.7271 33.9668 68.2619 33.9668C69.4334 33.9668 70.1464 34.7053 70.1464 35.8768V39.111H69.4079V35.9532C69.4079 35.1383 68.9241 34.6544 68.1601 34.6544C67.3706 34.6544 66.8358 35.1892 66.8358 35.9532V39.0855H66.0973V34.1196H66.1228Z" fill="white"/>
<path d="M72.3089 34.7826V37.9659C72.3089 38.297 72.4362 38.4243 72.8437 38.4243H73.2511V39.1119H72.7673C71.8505 39.1119 71.5449 38.8063 71.5449 37.9659V34.7826H70.7809V34.1205H71.5449V33H72.2834V34.1205H73.5058V34.7826H72.3089Z" fill="white"/>
<path d="M76.9978 32.2354H77.7363V34.5783H77.7617C78.0419 34.2217 78.6021 33.9671 79.1369 33.9671C80.2829 33.9671 81.0214 34.7056 81.0214 35.8516V39.0858H80.2829V35.9534C80.2829 35.1385 79.7991 34.6547 79.0351 34.6547C78.2456 34.6547 77.7108 35.1895 77.7108 35.9534V39.0858H76.9723V32.2354H76.9978Z" fill="white"/>
<path d="M82.0386 36.6153C82.0386 35.0364 82.9808 33.9668 84.356 33.9668C85.7057 33.9668 86.5971 34.96 86.5971 36.437V36.819H82.8026C82.828 37.7613 83.4138 38.5762 84.356 38.5762C85.0691 38.5762 85.4511 38.3215 85.884 37.583L86.4952 37.9396C86.0623 38.8054 85.3237 39.2383 84.3815 39.2383C82.9554 39.2383 82.0386 38.1688 82.0386 36.6153ZM85.8331 36.2333C85.8076 35.342 85.2219 34.6289 84.356 34.6289C83.4902 34.6289 82.828 35.3929 82.8026 36.2333H85.8331Z" fill="white"/>
<path d="M87.6129 32.2354H88.3514V39.1113H87.6129V32.2354Z" fill="white"/>
<path d="M89.6032 34.1195H90.3418V34.6543H90.3672C90.6983 34.2468 91.2076 33.9922 91.8188 33.9922C93.143 33.9922 94.0598 35.0618 94.0598 36.6407C94.0598 38.2196 93.1176 39.2892 91.8188 39.2892C91.2076 39.2892 90.6473 39.0345 90.3418 38.6525H90.3163V41.2756H89.5778L89.6032 34.1195ZM93.3213 36.6152C93.3213 35.4438 92.7101 34.6543 91.7933 34.6543C90.9529 34.6543 90.3163 35.3164 90.3163 36.1059V37.0736C90.3163 37.8885 90.9784 38.5507 91.7679 38.5507C92.7101 38.5507 93.3213 37.7867 93.3213 36.6152Z" fill="white"/>
<path d="M97.191 37.8377C97.191 36.9973 97.7004 36.5644 98.9482 36.2588C99.9159 36.0296 100.222 35.8258 100.222 35.4184C100.222 34.96 99.8141 34.6544 99.2029 34.6544C98.5408 34.6544 98.0824 35.0619 97.955 35.724L97.2165 35.5712C97.3948 34.6035 98.1588 33.9668 99.2029 33.9668C100.323 33.9668 101.011 34.578 101.011 35.5966V39.111H100.323V38.5762H100.298C100.018 38.9837 99.483 39.2383 98.8464 39.2383C97.8277 39.2383 97.191 38.7035 97.191 37.8377ZM100.247 37.4048V36.2842H100.222C100.12 36.5389 99.7886 36.6917 99.1265 36.87C98.2606 37.0992 97.9041 37.3538 97.9041 37.7868C97.9041 38.2961 98.2352 38.5507 98.8718 38.5507C99.6867 38.5507 100.247 38.0669 100.247 37.4048Z" fill="white"/>
<path d="M103.149 34.7826V37.9659C103.149 38.297 103.276 38.4243 103.684 38.4243H104.091V39.1119H103.607C102.69 39.1119 102.385 38.8063 102.385 37.9659V34.7826H101.621V34.1205H102.385V33H103.123V34.1205H104.346V34.7826H103.149Z" fill="white"/>
<path d="M107.254 34.1191H107.967L108.883 37.99H108.909L110.259 34.1191H110.921L112.27 37.99H112.296L113.213 34.1191H113.926L112.729 39.1105H112.041L110.615 35.0359H110.59L109.164 39.1105H108.476L107.254 34.1191Z" fill="white"/>
<path d="M114.355 36.6153C114.355 35.0364 115.297 33.9668 116.698 33.9668C118.124 33.9668 119.066 35.0364 119.066 36.6153C119.066 38.1942 118.124 39.2638 116.698 39.2638C115.297 39.2383 114.355 38.1688 114.355 36.6153ZM118.328 36.6153C118.328 35.4184 117.691 34.6544 116.698 34.6544C115.705 34.6544 115.094 35.4184 115.094 36.6153C115.094 37.8122 115.705 38.5762 116.698 38.5762C117.691 38.5507 118.328 37.7868 118.328 36.6153Z" fill="white"/>
<path d="M120.113 34.1194H120.801V34.5269H120.826C121.004 34.2213 121.386 34.0176 121.87 34.0176C122.048 34.0176 122.201 34.043 122.379 34.094L122.227 34.858C122.048 34.807 121.896 34.7816 121.743 34.7816C121.157 34.7816 120.877 35.1636 120.877 36.1058V39.1109H120.138L120.113 34.1194Z" fill="white"/>
<path d="M123.168 32.2354H123.906V36.3354H123.932L126.02 34.1199H127.064L125.205 36.0553L127.191 39.1113H126.325L124.696 36.5646H124.67L123.906 37.3541V39.0858H123.168V32.2354Z" fill="white"/>
<path d="M128.238 38.0156H129.358V39.1107H128.238V38.0156Z" fill="white"/>
<path d="M129.714 32.5154H129.281V32.2607H130.427V32.5154H129.994V33.7633H129.739V32.5154H129.714ZM130.631 32.2607H130.987L131.446 33.3813L131.904 32.2607H132.26V33.7378H132.006V32.6427L131.547 33.7633H131.344L130.885 32.6427V33.7633H130.631V32.2607Z" fill="white"/>
</svg>
