<svg width="68" height="39" viewBox="0 0 68 39" fill="none" xmlns="http://www.w3.org/2000/svg">
<path d="M63.494 18.5992C63.6077 14.9367 60.7648 11.9609 57.2397 11.8464C53.6008 11.732 50.5305 14.5933 50.4168 18.1414C50.3031 21.9184 53.146 25.0087 56.8985 25.1231C60.4237 25.1231 63.3803 22.2618 63.494 18.5992ZM67.474 28.9001H63.6077V26.7255C63.3803 26.8399 63.1528 26.9544 63.0391 27.0688C56.5574 31.5326 48.0288 27.7556 46.7779 19.9727C45.8682 14.3644 50.0757 8.75614 55.6477 8.06942C62.1294 7.26824 67.474 12.0753 67.474 18.5992V28.9001ZM21.3058 23.4063C21.5333 22.9485 21.647 22.7196 21.7607 22.3762C23.6938 17.6836 25.7407 13.1054 27.6739 8.41278C27.9013 7.95496 28.1287 7.72606 28.5836 7.84051C29.8344 7.84051 30.9716 7.84051 32.3362 7.84051C32.2224 8.06942 32.2224 8.29833 32.1087 8.52724C27.7876 18.4848 23.5801 28.3278 19.259 38.2854C19.0315 38.7432 18.9178 38.8576 18.3493 38.8576C17.0984 38.8576 15.8475 38.8576 14.5967 38.8576C14.7104 38.6287 14.8241 38.3998 14.8241 38.1709C16.1887 35.1951 17.5532 32.1048 18.9178 29.129C19.1453 28.6712 19.1453 28.3278 18.9178 27.87C16.3024 21.4606 13.8007 15.0511 11.1852 8.64169C11.1852 8.41278 11.0715 8.29833 10.9578 7.95496C12.3224 7.95496 13.5732 7.95496 14.9378 7.95496C15.1652 7.95496 15.3927 8.29833 15.3927 8.52724C16.9847 12.5331 18.5767 16.539 20.1687 20.5449C20.5098 21.4606 20.851 22.3762 21.3058 23.4063ZM0.382324 0.0576172H4.24862V20.6594C4.24862 23.6352 5.38577 24.7797 8.22864 25.0087C9.02464 25.0087 9.70693 25.0087 10.6166 25.0087V28.9001C8.11492 29.0146 5.49949 29.129 3.22519 27.7556C1.40576 26.7255 0.382324 25.0087 0.382324 22.9485C0.382324 15.28 0.382324 7.72606 0.382324 0.0576172ZM34.7242 7.95496H38.5905V11.732C40.6373 8.98505 43.1391 7.84051 46.3231 7.95496V11.732C46.2094 11.732 46.0956 11.8464 45.8682 11.8464C42.2293 11.6175 39.7276 14.1355 38.8179 17.5691C38.5905 18.4848 38.4768 19.4004 38.4768 20.4305C38.4768 23.1774 38.4768 26.0387 38.4768 28.7856C38.4768 28.7856 38.4768 28.9001 38.4768 29.0146H34.7242V7.95496Z" fill="white"/>
</svg>
