<svg width="93" height="24" viewBox="0 0 93 24" fill="none" xmlns="http://www.w3.org/2000/svg">
<path d="M69.8472 0.172852C77.5021 0.172852 85.1517 0.172852 92.8324 0.172852C92.8324 7.84458 92.8324 15.5054 92.8324 23.1943C85.1764 23.1943 77.5285 23.1943 69.8472 23.1943C69.8472 15.5253 69.8472 7.86303 69.8472 0.172852Z" fill="white"/>
<path d="M23.6046 0.167918C23.6046 7.8684 23.6046 15.5188 23.6046 23.1865C23.5294 23.2 23.4735 23.2187 23.4176 23.2187C19.5376 23.2173 15.6567 23.2674 11.7778 23.1983C6.84667 23.1106 2.5802 19.8495 1.09899 15.1553C-0.950007 8.66163 3.11323 1.72885 9.76826 0.402413C10.582 0.240202 11.425 0.162008 12.2552 0.156096C15.9113 0.130031 19.5675 0.144541 23.2238 0.145616C23.3408 0.145706 23.4578 0.158961 23.6046 0.167918Z" fill="white"/>
<path d="M56.0716 0.201172C62.424 0.262348 67.5752 5.26526 67.5661 11.7258C67.5568 18.3092 62.2817 23.1906 56.0972 23.2179C49.7546 23.2459 44.5864 18.0829 44.5815 11.7288C44.5768 5.37973 49.7307 0.208964 56.0716 0.201172Z" fill="white"/>
<path d="M48.6546 23.1956C41.0029 23.1956 33.3813 23.1956 25.7339 23.1956C25.7339 15.5376 25.7339 7.90576 25.7339 0.34375C33.3499 7.93684 40.9909 15.5549 48.6546 23.1956Z" fill="white"/>
</svg>
