<svg width="130" height="52" viewBox="0 0 130 52" fill="none" xmlns="http://www.w3.org/2000/svg">
<path d="M0.280762 28.5711C3.68226 18.8823 14.6004 12.5803 24.1317 14.8159C25.0213 15.0247 26.0586 15.1467 25.9524 16.4755C17.8513 15.5021 11.2744 18.5602 5.6315 23.8777C1.46143 27.8072 0.731506 32.2106 3.63604 37.0987C8.31897 44.9798 15.4185 49.2148 24.6218 49.1722C31.4657 49.1404 36.3277 45.6375 38.9473 39.2375C41.4636 33.09 41.8049 26.6276 41.6503 20.0944C41.5521 15.9478 41.3859 11.7969 41.4827 7.65317C41.5557 4.52904 42.5431 1.74044 45.7882 0.399414C46.3903 0.399414 46.992 0.399414 47.5941 0.399414C49.1782 1.11345 50.6886 1.89863 51.0765 4.07938C50.0829 3.77238 49.2464 3.50728 48.406 3.25591C46.2007 2.59677 44.63 3.24941 44.0933 5.46194C43.5898 7.53831 43.3554 9.72086 43.3204 11.8615C43.2232 17.8024 43.4291 23.7498 43.2492 29.6867C43.1177 34.02 42.1812 38.2421 40.392 42.2504C38.057 47.4816 34.1018 50.4356 28.4058 51.0662C28.0548 51.1052 27.7142 51.2363 27.3685 51.3245C26.4053 51.3245 25.4424 51.3245 24.4792 51.3245C23.9652 51.2129 23.4556 51.0738 22.937 50.9932C13.838 49.5749 6.56151 45.4359 2.28995 36.9632C1.417 35.2314 0.940259 33.2999 0.280762 31.4601C0.280762 30.4972 0.280762 29.5343 0.280762 28.5711Z" fill="white"/>
<path d="M129.216 24.2371C128.783 26.1805 127.347 26.6471 125.682 26.364C124.223 26.1159 122.743 25.6955 121.416 25.0551C120.295 24.5144 119.412 24.4884 118.429 25.1707C117.888 25.5467 117.317 25.884 116.745 26.2119C114.171 27.6862 112.046 26.9765 111.074 24.1453C110.635 22.866 110.42 21.4481 110.418 20.093C110.415 17.2733 110.667 14.4544 110.727 11.6333C110.781 9.15097 110.592 6.6961 108.875 4.39941C110.702 4.61973 111.743 5.62378 111.888 7.10025C112.133 9.58799 112.045 12.109 112.09 14.6158C112.138 17.2423 111.972 19.8943 112.287 22.4879C112.53 24.4859 113.462 25.0316 115.175 24.0106C118.077 22.281 120.74 22.532 123.671 23.7307C125.513 24.4845 127.447 24.1258 129.216 23.1535C129.216 23.5147 129.216 23.8759 129.216 24.2371Z" fill="white"/>
<path d="M49.3785 21.5681C49.4392 20.6326 49.6353 19.7171 49.8986 18.9456C50.8986 16.0133 53.2296 15.3863 55.6404 17.338C58.0816 19.3147 58.5865 23.5 56.6337 25.5724C55.4115 26.8697 53.1776 27.4432 51.6647 26.6992C49.7653 25.7649 49.2456 23.6184 49.3785 21.5681ZM55.5267 21.3351C55.5444 19.625 54.7375 18.1854 53.6269 18.038C52.6117 17.9036 52.1797 18.5942 51.8232 19.4184C51.3646 20.4791 50.8484 21.5681 50.8495 22.7498C50.8502 23.5975 51.1648 24.6976 52.1042 24.9212C53.4221 25.2347 54.9275 24.0031 55.388 22.216C55.4765 21.8715 55.4999 21.5106 55.5267 21.3351Z" fill="white"/>
<path d="M105.235 25.4294C104.933 24.3404 104.328 23.3364 104.013 22.2493C103.859 21.7133 103.881 20.9859 104.128 20.4994C105.07 18.6394 104.92 16.7454 103.282 15.4647C102.892 15.1602 102.435 14.9627 101.979 14.7806C101.503 14.5903 100.83 14.2898 100.436 14.8005C100.14 15.184 100.035 15.8114 99.9406 16.2773C99.8467 16.741 99.7058 17.246 99.8691 17.709C100.382 19.1605 99.6376 19.9309 98.3464 20.122C95.8615 20.49 93.3561 20.7251 90.8553 20.9779C89.8065 21.0841 88.8844 20.9331 88.2358 19.8666C87.6619 18.9229 86.9005 18.8987 85.9976 19.7019C85.1539 20.4524 84.1152 20.9841 83.0197 21.7061C82.5899 20.1899 82.3368 19.0825 81.9612 18.0181C81.2749 16.0747 79.7829 14.9146 78.2465 15.2415C76.4659 15.6203 76.09 17.1813 75.809 18.6711C75.6667 19.4256 75.6219 20.2682 75.8104 20.9996C76.112 22.1702 76.6444 23.2815 77.0807 24.4224C73.7976 24.9512 72.6162 23.9363 72.9203 20.6839C73.0764 19.0157 73.5444 17.3789 73.781 15.7153C73.9323 14.6517 74.1552 13.5014 73.8933 12.5096C73.72 11.853 72.7444 11.4084 72.1279 10.8691C71.7628 11.3737 71.2517 11.8295 71.0639 12.3933C70.7118 13.4508 70.5464 14.5708 70.3091 15.6402C65.2173 15.1122 61.9436 18.0322 62.1968 22.6838C62.3843 26.1337 64.5589 27.5213 67.7281 26.1246C68.9745 25.5753 70.1216 24.8009 71.4002 24.0804C73.7572 26.8802 76.7618 26.8011 79.7826 25.5991C82.0561 24.6944 84.161 23.37 86.3588 22.2677C86.7979 22.0474 87.4751 21.7198 87.7746 21.8964C89.9257 23.1652 92.1953 22.7459 94.4652 22.5653C95.8857 22.4522 97.3112 22.3988 98.8744 22.311C98.7415 22.8369 98.6602 23.1139 98.6017 23.396C97.9765 26.419 100.244 28.7557 103.291 28.2317C104.863 27.9608 105.65 26.9221 105.235 25.4294ZM70.1187 20.6312C69.8309 22.008 68.7893 23.1818 67.5916 23.867C66.9852 24.214 66.3033 24.4542 65.6027 24.4972C65.0259 24.5326 64.4252 24.36 64.0561 23.8922C63.9521 23.7604 63.877 23.6228 63.8261 23.4816C63.5833 22.8105 63.8773 22.0528 64.137 21.3983C64.3873 20.7667 64.725 20.1621 65.1967 19.668C66.0429 18.7817 67.2319 18.3244 68.453 18.3912C69.9768 18.4747 70.4153 19.2125 70.1187 20.6312ZM80.5468 20.8822C80.2008 21.4135 79.6052 22.0766 78.9591 22.2276C78.728 22.2814 78.4325 22.1286 78.2469 22.0113C77.8373 21.753 77.4566 21.2972 77.3468 20.8183C77.0709 19.6152 78.5546 17.83 79.3773 18.1709C79.7457 18.3237 79.9859 18.6715 80.2088 18.9847C80.5475 19.4607 80.8245 19.7854 80.8072 20.1964C80.7982 20.3954 80.7205 20.615 80.5468 20.8822ZM102.04 15.9876C102.629 15.9876 103.106 16.5941 103.106 17.342C103.106 18.09 102.629 18.6961 102.04 18.6961C101.451 18.6961 100.974 18.0897 100.974 17.342C100.974 16.5937 101.451 15.9876 102.04 15.9876ZM102.04 26.2922C101.279 26.2922 100.663 25.5088 100.663 24.5427C100.663 23.5766 101.279 22.7932 102.04 22.7932C102.801 22.7932 103.417 23.5766 103.417 24.5427C103.417 25.5088 102.801 26.2922 102.04 26.2922Z" fill="white"/>
<path d="M127.712 9.88019C128.157 9.88019 128.518 9.06667 128.518 8.06314C128.518 7.05962 128.157 6.24609 127.712 6.24609C127.267 6.24609 126.906 7.05962 126.906 8.06314C126.906 9.06667 127.267 9.88019 127.712 9.88019Z" fill="white"/>
</svg>
