<svg width="93" height="31" viewBox="0 0 93 31" fill="none" xmlns="http://www.w3.org/2000/svg">
<path d="M63.7894 30.9606C55.2428 31.1014 48.3671 24.4248 48.2473 15.8685C48.1262 7.23172 54.6981 0.380798 63.2354 0.243408C71.9469 0.103295 78.8481 6.68241 78.98 15.2531C79.1142 23.9809 72.5031 30.817 63.7894 30.9606ZM74.0847 15.6274C74.0897 9.53913 69.7256 5.11493 63.6958 5.09513C57.6633 5.07532 53.0814 9.62478 53.0972 15.6184C53.1131 21.5631 57.6569 26.0846 63.6258 26.095C69.6593 26.1059 74.0798 21.6817 74.0847 15.6274Z" fill="white"/>
<path d="M0.874512 6.0957C3.69063 6.25983 6.43918 6.31058 9.15851 6.61977C10.805 6.80691 12.1435 7.76567 12.9522 9.29924C14.0332 11.3487 13.608 13.1882 11.6001 15.1367C13.5805 16.2687 14.6576 17.9003 14.2078 20.2355C13.7285 22.7241 12.0076 24.1844 9.66153 24.5228C6.79441 24.9362 3.8659 24.9233 0.874512 25.1001C0.874512 18.7046 0.874512 12.5882 0.874512 6.0957ZM5.19227 21.4522C6.23817 21.3762 7.13306 21.3554 8.01483 21.2358C9.09142 21.0898 9.71847 20.4712 9.69 19.3277C9.66203 18.1989 9.10999 17.4028 7.99008 17.2409C7.08652 17.1104 6.1488 17.2144 5.19227 17.2144C5.19227 18.6281 5.19227 19.9283 5.19227 21.4522ZM5.21306 13.7225C6.68252 13.6455 8.12895 13.8519 8.90526 12.5241C9.18202 12.0508 9.11222 11.04 8.77431 10.6066C7.8762 9.45371 6.50577 9.84979 5.21306 9.81538C5.21306 11.1519 5.21306 12.3585 5.21306 13.7225Z" fill="white"/>
<path d="M46.8315 24.9339C44.9821 24.9339 43.3896 24.974 41.8025 24.8992C41.4961 24.8848 41.1428 24.4685 40.9267 24.1573C39.4748 22.0665 38.0541 19.9537 36.3753 17.8841C36.3753 20.1883 36.3753 22.4923 36.3753 24.868C34.8531 24.868 33.5091 24.868 32.0659 24.868C32.0659 18.7154 32.0659 12.5633 32.0659 6.12109C34.8684 6.25947 37.6754 6.18471 40.4098 6.59366C43.089 6.9942 44.7417 8.87508 45.0425 11.1008C45.3836 13.626 44.3488 15.4621 41.7746 16.9053C41.6387 16.9816 41.5131 17.0764 41.2886 17.2249C43.1071 19.7539 44.8937 22.2385 46.8315 24.9339ZM36.3983 13.9949C37.8524 14.0652 39.3312 14.3016 40.1529 12.9448C40.4697 12.4215 40.3883 11.3298 40.036 10.7938C39.1914 9.50831 37.7714 9.79003 36.398 9.89053C36.3983 11.257 36.3983 12.5556 36.3983 13.9949Z" fill="white"/>
<path d="M27.6817 13.4816C27.6817 14.7837 27.6817 15.8789 27.6817 17.106C25.7036 17.106 23.7808 17.106 21.7638 17.106C21.7638 18.5678 21.7638 19.8993 21.7638 21.3571C23.8856 21.3571 25.9677 21.3571 28.1325 21.3571C28.1325 22.5704 28.1325 23.6601 28.1325 24.8471C24.5955 24.8471 21.0719 24.8471 17.4448 24.8471C17.4448 18.7198 17.4448 12.5657 17.4448 6.3252C20.9828 6.3252 24.5084 6.3252 28.1258 6.3252C28.1258 7.41862 28.1258 8.50957 28.1258 9.74088C26.063 9.74088 23.9824 9.74088 21.7849 9.74088C21.7849 11.0358 21.7849 12.1968 21.7849 13.4814C23.7143 13.4816 25.633 13.4816 27.6817 13.4816Z" fill="white"/>
<path d="M82.2456 6.30362C82.5927 6.27985 82.8726 6.24446 83.1526 6.24396C86.3658 6.24 89.5793 6.24148 92.9038 6.24148C92.9038 7.44606 92.9038 8.56424 92.9038 9.78317C90.813 9.78317 88.7614 9.78317 86.599 9.78317C86.599 11.0385 86.599 12.1993 86.599 13.4843C88.5378 13.4843 90.4585 13.4843 92.4766 13.4843C92.4766 14.7257 92.4766 15.8481 92.4766 17.1012C90.5244 17.1012 88.6014 17.1012 86.5839 17.1012C86.5839 18.5576 86.5839 19.8874 86.5839 21.3566C88.6997 21.3566 90.7816 21.3566 92.9385 21.3566C92.9385 22.5869 92.9385 23.6798 92.9385 24.8582C89.3723 24.8582 85.8504 24.8582 82.2456 24.8582C82.2456 18.7086 82.2456 12.5815 82.2456 6.30362Z" fill="white"/>
</svg>
