<svg width="87" height="17" viewBox="0 0 87 17" fill="none" xmlns="http://www.w3.org/2000/svg">
<path d="M61.9771 12.0488V10.8983C61.4556 11.3551 60.3697 11.3775 59.4134 11.5489C58.4571 11.7446 57.5904 12.0705 57.5904 13.2005C57.5904 14.35 58.4783 14.6334 59.4779 14.6334C61.8903 14.6332 61.9771 12.722 61.9771 12.0488ZM22.0571 9.57334H27.0745C26.7921 8.00853 26.1188 7.18371 24.6198 7.18371C22.6645 7.18371 22.1005 8.70345 22.0571 9.57334ZM33.1185 9.57334H38.137C37.8535 8.00853 37.1812 7.18371 35.6813 7.18371C33.7257 7.18371 33.1619 8.70345 33.1185 9.57334ZM54.9833 9.11777H51.9646C51.7705 7.85692 50.9647 7.18394 49.6841 7.18394C47.7088 7.18394 47.0544 9.18381 47.0544 10.8335C47.0544 12.4397 47.6861 14.3729 49.6173 14.3729C51.0522 14.3729 51.8761 13.4605 52.0737 12.0934H54.696C55.2225 10.5719 56.7769 10.133 58.3275 9.9202C60.2183 9.63863 61.9771 9.70278 61.9771 8.44285C61.9771 7.12007 61.0649 6.92311 59.9772 6.92311C58.8062 6.92311 58.0453 7.89959 57.9379 9.11514L54.9833 9.11777ZM86.2785 11.5263H78.1776C78.2627 13.4827 79.2196 14.3727 80.9345 14.3727C82.1718 14.3727 83.1715 13.6129 83.3674 12.9189H86.0837C85.2131 15.5658 83.3674 16.6974 80.8271 16.6974C78.0891 16.6974 76.1532 15.2408 75.4197 12.9717C75.3134 15.7803 72.8051 16.6974 70.2979 16.6974C67.8353 16.6974 65.4309 15.8276 65.0619 13.2241V13.8954C65.0619 14.916 65.171 15.9367 65.4532 16.3923H62.3239C62.2153 16.0457 62.1297 15.6766 62.1074 15.3076C61.1317 16.3282 59.6967 16.6974 58.3275 16.6974C56.3806 16.6974 54.797 15.8049 54.5408 13.8916C53.6858 15.7181 51.9289 16.6974 49.64 16.6974C46.756 16.6974 44.677 14.9668 44.1207 12.3756V16.3923H41.0362V11.5263H33.1185C33.2041 13.4827 34.1608 14.3727 35.8782 14.3727C37.1154 14.3727 38.1143 13.6129 38.3093 12.9189H41.0248C40.1559 15.5658 38.3093 16.6974 35.768 16.6974C32.4839 16.6974 30.3596 14.6053 30.068 11.5265H22.0571C22.1426 13.483 23.1003 14.3729 24.8158 14.3729C26.053 14.3729 27.0528 13.6131 27.2488 12.9192H29.9643C29.0954 15.566 27.2488 16.6977 24.7068 16.6977C21.1667 16.6977 18.9728 14.2646 18.9728 10.7884C18.9728 7.42329 21.2966 4.85936 24.7068 4.85936C27.896 4.85936 29.7103 7.09545 30.0972 9.84114C30.4907 6.95424 32.6864 4.85936 35.768 4.85936C38.6981 4.85936 40.4654 6.74619 41.0359 9.18118V0.886582H44.1205V9.38774C44.6553 6.7062 46.6212 4.85888 49.7058 4.85888C52.1528 4.85888 54.4125 6.04527 54.8985 8.48289C55.2798 5.52173 57.7711 4.85888 60.1326 4.85888C62.3684 4.85888 65.0619 5.35879 65.0619 8.0536V12.7444H67.9495C67.9718 14.0899 69.1017 14.6332 70.319 14.6332C71.2073 14.6332 72.3378 14.2866 72.3378 13.2002C72.3378 12.2653 71.0565 11.9394 68.8406 11.4631C67.0595 11.0723 65.2789 10.4425 65.2789 8.46507C65.2789 5.59887 67.7553 4.85888 70.1648 4.85888C72.6223 4.85888 74.8793 5.68468 75.1186 8.44239H72.1864C72.1007 7.24952 71.1856 6.92265 70.0814 6.92265C69.3845 6.92265 68.3637 7.05546 68.3637 7.96586C68.3637 9.07413 70.1002 9.22385 71.862 9.63818C73.2135 9.94693 74.5445 10.3904 75.1232 11.478C75.1003 11.2519 75.0929 11.0232 75.0929 10.7879C75.0929 7.42277 77.4167 4.85888 80.8271 4.85888C84.6498 4.85888 86.495 8.07336 86.2785 11.5263ZM78.1776 9.57334H83.1932C82.9104 8.00853 82.2392 7.18371 80.7402 7.18371C78.7849 7.18371 78.221 8.70345 78.1776 9.57334ZM17.2223 1.79602V5.16404H19.4802V6.95207H17.2223V12.7869C17.2223 13.8281 17.4822 14.0899 18.5244 14.0899C18.8503 14.0899 19.1543 14.0673 19.4802 14.0041V16.4145C18.9586 16.502 18.2863 16.5217 17.6772 16.5217C15.7875 16.5217 14.1378 16.0867 14.1378 13.8505V6.95207H9.84253L9.84156 5.51041C9.73211 3.64429 8.40642 3.16704 6.77866 3.16704C5.69208 3.16704 4.43242 3.62188 4.43242 4.92493C4.43242 6.11782 5.17143 6.27234 9.05913 7.27214C10.1881 7.55467 13.6642 8.27027 13.6642 11.7878C13.6642 14.6332 11.4271 16.7601 7.21252 16.7601C3.78065 16.7601 0.56617 15.0654 0.609316 11.2435H3.91033C3.91033 13.3073 5.51757 14.1114 7.34316 14.1114C8.53707 14.1114 10.3617 13.7647 10.3617 12.1782C10.3617 10.5052 8.03786 10.2217 5.7574 9.61624C3.45428 9.00809 1.12972 8.11724 1.12972 5.2079C1.1302 2.03706 4.12799 0.515625 6.93004 0.515625C10.0597 0.515625 12.9456 1.83579 13.1329 5.16404H14.1376V1.79602H17.2223Z" fill="white"/>
</svg>
