<svg width="106" height="18" viewBox="0 0 106 18" fill="none" xmlns="http://www.w3.org/2000/svg">
<path d="M10.8745 8.78539L12.4819 11.3346L15.7151 6.18137V17.5967H18.5003V0.991856H15.6581L10.8745 8.78539Z" fill="white"/>
<path d="M3.06258 0.991856H0.245605V17.5967H3.03777V6.18137L9.37689 16.3174L10.9939 13.7308L3.06258 0.991856Z" fill="white"/>
<path d="M35.2472 12.4488L37.8242 17.5957H41.183L32.7565 0.991251H29.7284L29.7258 0.996435L33.945 9.80217H28.3385L29.8018 6.93149L28.2755 3.81193L21.1753 17.5957H24.3167L26.9707 12.4499L35.2472 12.4488Z" fill="white"/>
<path d="M59.7846 0.991095H56.9917V9.05462L59.7846 11.8594V0.991095Z" fill="white"/>
<path d="M46.3019 0.991856H43.4604V17.5967H46.2545V5.18917L57.7016 17.5967H59.7812V15.5789L46.3019 0.991856Z" fill="white"/>
<path d="M79.2942 5.59906C77.9643 4.21797 75.9136 3.33355 73.6129 3.33355C69.9411 3.33355 66.9063 5.58757 66.4223 8.5127H63.3472C63.749 3.97242 68.3948 0.625831 73.6506 0.625831C76.7765 0.625831 79.585 1.78988 81.4757 3.6628L79.2942 5.59906Z" fill="white"/>
<path d="M73.3552 15.277C70.2897 15.277 67.6801 13.6159 66.7068 11.2922H63.5698C64.6072 15.2973 68.686 17.9688 73.5289 17.9688C74.6533 17.9688 75.9473 17.8576 77.0218 17.591C79.4465 16.991 82.0946 15.4151 82.0946 12.9274V8.51266H73.3229L73.3166 11.2922H79.2913V12.5541C79.2913 13.9474 77.2095 14.7533 75.9355 15.0362C75.2499 15.1884 74.37 15.277 73.6596 15.277H73.3552Z" fill="white"/>
<path d="M105.184 9.30916C105.184 4.35705 100.689 0.51528 95.1676 0.51528C89.8214 0.51528 85.1245 4.17964 85.1245 9.0425C85.1245 13.6276 88.8133 17.3012 93.7825 17.8838V15.1098C90.5314 14.5742 88.0744 12.1454 88.0744 9.22435C88.0744 5.91072 91.234 3.22263 95.1298 3.22263C99.0275 3.22263 102.186 5.91072 102.186 9.22435C102.186 12.1228 99.7675 14.5353 96.5543 15.0964V17.8764C101.322 17.2968 105.184 13.7602 105.184 9.30916Z" fill="white"/>
</svg>
