<svg width="95" height="22" viewBox="0 0 95 22" fill="none" xmlns="http://www.w3.org/2000/svg">
<path d="M23.1706 0.338418C25.2311 0.338418 27.2915 0.338418 29.5292 0.338418C29.5292 0.625072 29.5292 0.99905 29.5292 1.37303C29.5292 5.30486 29.5292 9.23692 29.5294 13.1688C29.5294 13.4904 29.5266 13.8122 29.532 14.1338C29.5912 17.7578 32.2678 19.2745 35.4545 17.4872C36.868 16.6944 37.7557 15.7225 37.655 13.8579C37.4821 10.6502 37.61 7.42645 37.6061 4.20931C37.6031 1.72469 37.3561 1.43246 34.9505 0.927171C34.7477 0.884474 34.5737 0.704455 34.3864 0.588377C34.589 0.458782 34.79 0.219122 34.9943 0.216332C37.0607 0.188439 39.1278 0.19938 41.3204 0.19938C41.3204 0.668625 41.3204 1.05118 41.3204 1.43353C41.3204 6.00884 41.3197 10.5841 41.3206 15.1594C41.3212 17.6228 41.4032 17.7209 43.8069 18.2384C43.8975 18.2579 43.9721 18.3513 44.3275 18.6062C42.104 19.3563 40.0749 20.0407 37.8919 20.7771C37.8919 19.5127 37.8919 18.3641 37.8919 17.0474C36.9017 17.938 36.1141 18.7525 35.2213 19.4281C33.2183 20.9436 31.0212 21.3478 28.6902 20.2321C26.7907 19.323 25.9005 17.7157 25.8775 15.6609C25.8351 11.8368 25.8587 8.01176 25.8479 4.18721C25.8466 3.68771 25.8466 3.18263 25.775 2.69022C25.6336 1.71611 25.1399 1.04239 24.0924 0.883399C23.7643 0.83362 23.4468 0.714756 23.1245 0.627645C23.1402 0.531307 23.1554 0.43497 23.1706 0.338418Z" fill="white"/>
<path d="M46.0818 10.438C46.0509 5.54665 49.0695 1.43094 53.5103 0.379801C59.8165 -1.1129 65.4811 3.3474 65.5717 9.83444C65.6133 12.8138 64.8304 15.4868 62.8504 17.7419C60.3317 20.6104 57.11 21.43 53.5193 20.5217C49.7186 19.5605 47.4621 16.9246 46.4783 13.1893C46.244 12.2991 46.2086 11.3563 46.0818 10.438ZM50.1554 9.09678C50.1439 9.40768 50.1409 9.71729 50.1477 10.0239C50.1915 11.9867 50.6421 13.942 51.4791 15.7188C51.5125 15.7898 51.5467 15.8606 51.5814 15.9312C52.0953 16.9744 52.7671 17.9815 53.6944 18.7014C54.7127 19.4918 55.9776 19.7435 57.245 19.5886C59.0582 19.3668 60.1437 18.1903 60.7157 16.6191C62.4296 11.9118 61.9267 7.36549 59.0415 3.28561C57.3467 0.888961 53.8467 0.645861 51.8889 2.8655C51.0544 3.8115 50.6736 5.06002 50.4627 6.28044C50.3041 7.19791 50.1904 8.15336 50.1554 9.09678Z" fill="white"/>
<path d="M9.83953 0.610615C9.6063 0.723045 9.3838 0.876025 9.13791 0.941466C7.68683 1.32746 7.3931 1.79778 7.9692 3.2598C8.97549 5.81394 10.0603 8.33696 11.1196 10.8701C11.6489 12.1358 12.1952 13.3946 12.8511 14.9317C14.4123 10.8982 15.9045 7.16738 17.2917 3.39797C17.8733 1.81751 17.509 1.33154 15.8627 0.884604C15.6885 0.837401 15.54 0.695792 15.4179 0.3909C17.4262 0.3909 19.4343 0.3909 21.5072 0.3909C21.4636 0.537445 21.449 0.760378 21.3857 0.775183C19.8681 1.12985 19.404 2.40628 18.9114 3.62563C16.7203 9.04781 14.5517 14.4792 12.369 19.9048C12.2289 20.2528 12.0375 20.58 11.7139 21.2306C11.2771 20.4479 10.9271 19.9411 10.6943 19.3854C8.51719 14.1893 6.35334 8.98772 4.2015 3.78118C3.63635 2.41378 2.95319 1.2013 1.32853 0.892547C1.20537 0.86916 1.1174 0.661247 0.874512 0.376953C3.94252 0.376953 6.82687 0.376953 9.71101 0.376953C9.7537 0.454624 9.79662 0.532729 9.83953 0.610615Z" fill="white"/>
<path d="M78.6318 20.6627C78.3561 20.6889 78.0806 20.7372 77.8049 20.7376C74.804 20.743 71.8032 20.7505 68.8025 20.7262C68.5088 20.7239 68.217 20.5145 67.9241 20.4012C68.1897 20.2546 68.4393 20.0338 68.7233 19.9733C70.7089 19.5489 71.1453 19.0466 71.1528 16.9826C71.1653 13.5888 71.1567 10.1949 71.1548 6.8012C71.1545 6.51561 71.1419 6.22982 71.1279 5.94446C71.0046 3.43795 70.4149 2.91678 67.8003 3.20944C67.9867 2.90348 68.0648 2.58614 68.2356 2.52392C70.3682 1.74828 72.514 1.00955 74.7707 0.22168C74.7707 1.58114 74.7707 2.84556 74.7707 4.32603C75.6882 3.30043 76.4237 2.40998 77.2328 1.59251C78.0853 0.731043 79.0982 0.160744 80.3802 0.266952C81.9515 0.397405 82.9299 1.81931 82.4817 3.33046C82.0802 4.68434 80.6864 5.12548 79.4947 4.27582C77.5864 2.91571 76.6778 3.07578 75.4912 5.13063C75.1514 5.71939 74.9521 6.47142 74.9403 7.15308C74.884 10.3672 74.8969 13.5831 74.9218 16.798C74.939 19.0061 75.6908 19.7755 77.9106 20.0222C78.1896 20.0531 78.4545 20.2087 78.7262 20.3065C78.6944 20.4252 78.6631 20.5441 78.6318 20.6627Z" fill="white"/>
<path d="M83.886 2.8626C84.0933 2.64139 84.2615 2.30067 84.5142 2.21807C86.577 1.5437 88.6557 0.917398 90.8751 0.231445C90.8996 0.682668 90.9365 1.04892 90.9367 1.41518C90.9406 6.16685 90.9388 10.9183 90.9401 15.67C90.9403 16.1343 90.9378 16.5995 90.9614 17.0629C91.0753 19.2939 91.4115 19.657 93.6262 20.0367C93.8762 20.0796 94.1073 20.2331 94.3471 20.3354C94.3212 20.4225 94.2952 20.5096 94.269 20.5967C90.7783 20.5967 87.2879 20.5967 83.7972 20.5967C83.7695 20.5126 83.742 20.4283 83.7144 20.3442C83.9793 20.2313 84.2345 20.0629 84.5106 20.0144C86.922 19.5919 87.2269 19.2523 87.2327 16.7917C87.2417 12.9691 87.2381 9.14625 87.234 5.32363C87.2317 3.04799 86.7914 2.6783 84.5921 3.06923C84.4261 3.09884 84.254 3.09391 84.0847 3.10485C84.0186 3.02417 83.9523 2.94328 83.886 2.8626Z" fill="white"/>
</svg>
