<svg width="227" height="82" viewBox="0 0 227 82" fill="none" xmlns="http://www.w3.org/2000/svg">
<g clip-path="url(#clip0_1125_1669)">
<path d="M78.1501 61.2081H80.6645V51.598C80.6645 48.7483 82.7547 47.2628 85.0872 47.2628C87.6318 47.2628 88.8132 48.5057 88.8132 51.2948V61.2081H91.3276V51.4767C91.3276 46.8687 89.0253 45.08 85.7537 45.08C83.1485 45.08 81.3915 46.3836 80.6645 47.8691V45.3529H78.1501V61.2081Z" fill="#D8D6D6"/>
<path d="M100.92 61.481C104.495 61.481 107.13 59.8136 107.675 56.6304H105.161C104.828 58.4797 103.404 59.3892 100.95 59.3892C97.7089 59.3892 95.9822 57.3883 95.8611 53.7807H107.796V52.9622C107.796 47.2931 104.343 45.08 100.678 45.08C96.3155 45.08 93.2559 48.4148 93.2559 53.2047V53.4472C93.2559 58.3281 96.4366 61.481 100.92 61.481ZM95.952 51.7495C96.3761 48.9302 98.1027 47.1718 100.678 47.1718C103.283 47.1718 104.979 48.4754 105.222 51.7495H95.952Z" fill="#D8D6D6"/>
<path d="M113.953 61.481C116.286 61.481 117.71 60.6928 118.891 59.2073V61.2081H121.405V50.7491C121.405 46.323 118.649 45.08 115.619 45.08C112.56 45.08 109.682 46.4139 109.349 50.0215H111.863C112.105 48.0813 113.317 47.1718 115.498 47.1718C117.922 47.1718 118.891 48.2329 118.891 50.7491V51.9011H116.619C112.56 51.9011 108.682 53.1441 108.682 56.8123C108.682 60.0561 111.015 61.481 113.953 61.481ZM114.196 59.4801C111.984 59.4801 111.197 58.4494 111.197 56.8123C111.197 54.478 113.529 53.6898 116.71 53.6898H118.891V55.6603C118.891 58.1159 116.861 59.4801 114.196 59.4801Z" fill="#D8D6D6"/>
<path d="M124.527 61.2081H127.041V52.5074C127.041 48.5967 129.071 47.5963 132.251 47.4447V45.08C129.404 45.171 128.041 46.4139 127.041 48.2026V45.3529H124.527V61.2081Z" fill="#D8D6D6"/>
<path d="M7.99131 61.4811C11.8313 61.4811 14.6046 58.9192 14.9398 55.4728H12.5932C12.3189 58.0652 10.277 59.3767 8.02178 59.3767C4.94371 59.3767 2.81039 57.3027 2.81039 53.3988V53.1548C2.81039 49.4034 5.03514 47.0855 7.93035 47.0855C10.1246 47.0855 11.9532 48.0309 12.3494 50.5624H14.8484C14.3608 46.506 11.2522 44.981 7.93035 44.981C3.66372 44.981 0.189453 48.2749 0.189453 53.1548V53.3988C0.189453 58.3397 3.54181 61.4811 7.99131 61.4811Z" fill="#D8D6D6"/>
<path d="M23.5741 59.3767C20.3436 59.3767 18.3627 56.9977 18.3627 53.3683V53.1243C18.3627 49.4644 20.3741 47.0855 23.5741 47.0855C26.7436 47.0855 28.7855 49.4644 28.7855 53.1548V53.3683C28.7855 56.9672 26.774 59.3767 23.5741 59.3767ZM23.5436 61.4811C28.0845 61.4811 31.4064 58.1567 31.4064 53.3378V53.0938C31.4064 48.3054 28.0845 44.981 23.5741 44.981C19.0636 44.981 15.7417 48.3359 15.7417 53.1243V53.3683C15.7417 58.0347 19.0027 61.4811 23.5436 61.4811Z" fill="#D8D6D6"/>
<path d="M39.4982 61.4811C41.8144 61.4811 44.0392 60.0172 44.9534 58.4617V61.2066H47.4829V0.571289H44.9534V47.8174C44.0392 46.262 42.3935 44.981 39.742 44.981C35.3535 44.981 32.3059 48.4274 32.3059 53.3073V53.5513C32.3059 58.5227 35.323 61.4811 39.4982 61.4811ZM39.7725 59.3767C37.0906 59.3767 34.9268 57.4552 34.9268 53.4293V53.1853C34.9268 49.3119 36.8164 47.0855 39.9859 47.0855C43.0944 47.0855 45.0449 49.0069 45.0449 53.0938V53.3378C45.0449 57.4247 42.7287 59.3767 39.7725 59.3767Z" fill="#D8D6D6"/>
<path d="M57.2948 61.4811C60.891 61.4811 63.5424 59.8037 64.0909 56.6012H61.5614C61.2262 58.4617 59.7938 59.3767 57.3253 59.3767C54.0643 59.3767 52.3272 57.3637 52.2053 53.7343H64.2128V52.9108C64.2128 47.2075 60.7386 44.981 57.051 44.981C52.6624 44.981 49.5844 48.3359 49.5844 53.1548V53.3988C49.5844 58.3092 52.7843 61.4811 57.2948 61.4811ZM52.2967 51.6909C52.7234 48.8544 54.4605 47.0855 57.051 47.0855C59.6719 47.0855 61.3786 48.3969 61.6224 51.6909H52.2967Z" fill="#D8D6D6"/>
<path d="M66.3266 61.2066H68.8866V0.571289H66.3266V61.2066Z" fill="#D8D6D6"/>
<path d="M72.2956 61.2066H74.8251V45.2555H72.2956V61.2066ZM73.5147 41.9311C74.429 41.9311 75.1909 41.1686 75.1909 40.2536C75.1909 39.3387 74.429 38.5762 73.5147 38.5762C72.6004 38.5762 71.8385 39.3387 71.8385 40.2536C71.8385 41.1686 72.6004 41.9311 73.5147 41.9311Z" fill="#D8D6D6"/>
</g>
<defs>
<clipPath id="clip0_1125_1669">
<rect width="226" height="81" fill="white" transform="translate(0.189453 0.571289)"/>
</clipPath>
</defs>
</svg>
