<svg width="359" height="140" viewBox="0 0 359 140" fill="none" xmlns="http://www.w3.org/2000/svg">
<path d="M2.04272 134.364C2.04272 127.934 5.55538 118.82 9.17941 113.747" stroke="#848484" stroke-width="1.59222" stroke-linecap="round"/>
<path d="M2.0386 133.571C-3.7536 134.399 13.1401 137.272 18.6909 139.122" stroke="#848484" stroke-width="1.59222" stroke-linecap="round"/>
<path d="M3.62402 131.985C4.41147 128.441 14.9484 123.308 17.4569 121.676C47.7906 101.946 82.4801 86.769 116.401 74.539C166.344 56.5322 218.856 46.1 270.853 36.0361" stroke="#848484" stroke-width="1.59222" stroke-linecap="round"/>
<path d="M273.089 25.859C271.725 23.3027 274.374 31.9708 274.576 33.0462C275.757 39.344 277.24 45.5649 278.293 51.8816" stroke="#848484" stroke-width="2.0787" stroke-linecap="round"/>
<path d="M270.855 25.8591C277.005 17.6589 284.629 33.5134 274.573 35.5246" stroke="#848484" stroke-width="2.0787" stroke-linecap="round"/>
<path d="M286.464 23.6284C286.234 21.7905 283.503 24.2701 283.201 25.1154C282.694 26.5352 286.013 28.4938 287.042 29.246C291.4 32.4306 284.234 35.8426 284.234 32.5504" stroke="#848484" stroke-width="2.0787" stroke-linecap="round"/>
<path d="M293.904 20.6545C292.481 18.1248 286.034 23.0896 293.119 26.1894C295.929 27.4187 295.394 28.6347 293.202 30.2787C291.089 31.8634 290.352 30.4027 288.699 29.5765" stroke="#848484" stroke-width="2.0787" stroke-linecap="round"/>
<path d="M298.365 6.52856C298.365 4.67692 298.365 6.1858 298.365 7.02423C298.365 11.0785 298.758 14.81 299.438 18.7964C299.67 20.1509 301.216 30.566 302.082 28.8336" stroke="#848484" stroke-width="2.0787" stroke-linecap="round"/>
<path d="M293.157 16.937C290.045 15.7702 303.103 10.1052 304.309 9.50195" stroke="#848484" stroke-width="2.0787" stroke-linecap="round"/>
<path d="M307.288 2.8106C307.288 1.48186 307.298 1.51925 306.916 2.89321C305.944 6.39295 307.288 10.753 307.288 14.3762C307.288 17.1792 307.148 24.3023 310.262 25.8592" stroke="#848484" stroke-width="2.0787" stroke-linecap="round"/>
<path d="M309.516 33.2941C310.463 34.5119 309.063 34.6846 309.681 33.2941C310.089 32.3765 310.684 31.9665 309.516 32.5506" stroke="#848484" stroke-width="2.0787" stroke-linecap="round"/>
<path d="M321.413 13.963C319.153 13.6805 323.288 11.4981 323.685 11.3607C326.766 10.2941 329.563 8.55826 332.566 7.27148" stroke="#848484" stroke-width="2.0787" stroke-linecap="round"/>
<path d="M328.848 8.75879C326.32 11.9179 326.412 22.8084 327.361 26.6028" stroke="#848484" stroke-width="2.0787" stroke-linecap="round"/>
<path d="M336.282 8.75872C336.282 5.43126 336.026 15.4219 335.539 18.7134C334.933 22.8031 334.381 24.7787 337.356 19.9113C342.691 11.1816 340.172 28.6611 344.461 24.3723" stroke="#848484" stroke-width="2.0787" stroke-linecap="round"/>
<path d="M348.182 16.937C348.182 18.3663 347.67 23.1407 346.695 23.6285" stroke="#848484" stroke-width="2.0787" stroke-linecap="round"/>
<path d="M346.695 11.7328C347.937 11.8881 348.494 14.2302 348.967 12.1046C349.424 10.0443 349.494 8.24895 347.438 10.9893" stroke="#848484" stroke-width="2.0787" stroke-linecap="round"/>
<path d="M357.846 16.9371C357.846 12.2683 351.306 16.3447 354.5 19.5394C355.424 20.4635 357.876 21.7145 356.648 23.2156C354.901 25.3515 351.277 25.5078 348.924 25.1156" stroke="#848484" stroke-width="2.0787" stroke-linecap="round"/>
<path d="M300.598 51.1385C299.175 49.8937 300.598 58.8438 300.598 60.0605" stroke="#848484" stroke-width="2.0787" stroke-linecap="round"/>
<path d="M298.366 45.9336C299.581 47.1487 296.487 42.9189 297.622 45.1901" stroke="#848484" stroke-width="2.0787" stroke-linecap="round"/>
<path d="M307.285 47.4204C304.521 47.4204 302.206 50.318 304.641 52.6249C307.806 55.6226 310.703 56.3424 304.311 56.3424" stroke="#848484" stroke-width="2.0787" stroke-linecap="round"/>
<path d="M318.44 45.9338C318.058 44.5985 315.77 49.4903 316.374 51.3035C317.338 54.1933 320.938 54.0435 321.992 51.3035C322.741 49.3561 324.388 45.5207 324.388 45.5207C324.388 45.5207 323.835 49.3033 324.966 50.56C327.066 52.8941 328.196 51.1565 329.757 48.9078C330.976 47.1522 331.086 45.3796 331.41 43.3315C331.591 42.1808 330.336 40.7937 330.336 42.2163C330.336 44.6977 334.647 46.7069 335.375 49.073C336.043 51.2453 332.175 55.1699 331.079 51.8818" stroke="#848484" stroke-width="2.0787" stroke-linecap="round"/>
</svg>
